HIERARCHY
ROOT Hips
{
	OFFSET -0.001795 -0.223333 0.028219
	CHANNELS 6 Xposition Yposition Zposition Zrotation Yrotation Xrotation 
	JOINT LeftUpLeg
	{
		OFFSET 0.069520 -0.091406 -0.006815
		CHANNELS 3 Zrotation Yrotation Xrotation
		JOINT LeftLeg
		{
			OFFSET 0.034277 -0.375199 -0.004496
			CHANNELS 3 Zrotation Yrotation Xrotation
			JOINT LeftFoot
			{
				OFFSET -0.013596 -0.397961 -0.043693
				CHANNELS 3 Zrotation Yrotation Xrotation
				JOINT LeftToe
				{
					OFFSET 0.026358 -0.055791 0.119288
					CHANNELS 3 Zrotation Yrotation Xrotation
					End Site
					{
						OFFSET 0.000000 0.000000 0.000000
					}
				}
			}
		}
	}
	JOINT RightUpLeg
	{
		OFFSET -0.067670 -0.090522 -0.004320
		CHANNELS 3 Zrotation Yrotation Xrotation
		JOINT RightLeg
		{
			OFFSET -0.038290 -0.382569 -0.008850
			CHANNELS 3 Zrotation Yrotation Xrotation
			JOINT RightFoot
			{
				OFFSET 0.015774 -0.398415 -0.042312
				CHANNELS 3 Zrotation Yrotation Xrotation
				JOINT RightToe
				{
					OFFSET -0.025372 -0.048144 0.123348
					CHANNELS 3 Zrotation Yrotation Xrotation
					End Site
					{
						OFFSET 0.000000 0.000000 0.000000
					}
				}
			}
		}
	}
	JOINT Spine
	{
		OFFSET -0.002533 0.108963 -0.026696
		CHANNELS 3 Zrotation Yrotation Xrotation
		JOINT Spine1
		{
			OFFSET 0.005487 0.135180 0.001092
			CHANNELS 3 Zrotation Yrotation Xrotation
			JOINT Spine2
			{
				OFFSET 0.001457 0.052922 0.025425
				CHANNELS 3 Zrotation Yrotation Xrotation
				JOINT Neck
				{
					OFFSET -0.002778 0.213870 -0.042857
					CHANNELS 3 Zrotation Yrotation Xrotation
					JOINT Head
					{
						OFFSET 0.005152 0.064970 0.051349
						CHANNELS 3 Zrotation Yrotation Xrotation
						End Site
						{
							OFFSET 0.000000 0.000000 0.000000
						}
					}
				}
				JOINT LeftShoulder
				{
					OFFSET 0.078845 0.121749 -0.034090
					CHANNELS 3 Zrotation Yrotation Xrotation
					JOINT LeftArm
					{
						OFFSET 0.090977 0.030469 -0.008868
						CHANNELS 3 Zrotation Yrotation Xrotation
						JOINT LeftForeArm
						{
							OFFSET 0.259612 -0.012772 -0.027456
							CHANNELS 3 Zrotation Yrotation Xrotation
							JOINT LeftHand
							{
								OFFSET 0.249234 0.008986 -0.001171
								CHANNELS 3 Zrotation Yrotation Xrotation
								End Site
								{
									OFFSET 0.000000 0.000000 0.000000
								}
							}
						}
					}
				}
				JOINT RightShoulder
				{
					OFFSET -0.081759 0.118833 -0.038615
					CHANNELS 3 Zrotation Yrotation Xrotation
					JOINT RightArm
					{
						OFFSET -0.096012 0.032551 -0.009143
						CHANNELS 3 Zrotation Yrotation Xrotation
						JOINT RightForeArm
						{
							OFFSET -0.253742 -0.013329 -0.021401
							CHANNELS 3 Zrotation Yrotation Xrotation
							JOINT RightHand
							{
								OFFSET -0.255298 0.007772 -0.005559
								CHANNELS 3 Zrotation Yrotation Xrotation
								End Site
								{
									OFFSET 0.000000 0.000000 0.000000
								}
							}
						}
					}
				}
			}
		}
	}
}
MOTION
Frames: 7
Frame Time: 0.050000
0.000000 0.938271 0.000000 0.205638 -1.459608 0.353865 1.740146 -0.018399 -0.010104 -2.356096 0.279565 -1.061258 4.668999 10.993242 5.791371 0.000000 0.000000 0.000000 -4.152716 0.265635 -2.424787 3.253630 -0.307287 2.236946 -3.943370 -10.900742 3.962510 0.000000 0.000000 0.000000 0.750733 0.061821 -1.444398 -0.842540 0.385733 1.418357 -0.687440 -0.253309 7.532508 1.541995 -0.283348 -11.627943 0.000000 0.000000 0.000000 -22.512831 -16.725862 7.979287 -62.532529 -32.008548 10.155711 -156.304489 -69.570366 154.330943 0.000000 0.000000 0.000000 13.937691 18.795227 7.810839 48.363055 38.955498 11.049135 -129.107314 71.110734 -107.094160 0.000000 0.000000 0.000000 
-0.000081 0.937436 0.000492 -0.040453 -0.877709 0.934692 2.032294 -0.028267 -0.032401 -2.430922 0.291522 -1.691538 4.096250 9.929765 5.575907 0.000000 0.000000 0.000000 -4.570362 0.237863 -1.889779 4.047960 -0.414562 1.101979 -3.593061 -10.157007 4.153002 0.000000 0.000000 0.000000 0.207993 0.112761 -2.681055 -0.782341 0.344097 1.922366 -0.492938 -1.190665 7.614694 1.584258 -0.336771 -12.133348 0.000000 0.000000 0.000000 -22.524665 -16.099625 7.838124 -61.690442 -31.792857 9.799259 -166.114721 -69.471143 168.694667 0.000000 0.000000 0.000000 13.348778 18.182212 7.308979 48.425143 38.670980 10.921925 -132.478168 69.529060 -109.828603 0.000000 0.000000 0.000000 
0.000063 0.937388 0.000843 0.041905 -1.907552 0.789116 2.045547 -0.018247 0.040099 -2.292682 0.269072 -0.653360 4.657240 10.858160 5.258178 0.000000 0.000000 0.000000 -4.830327 0.305303 -2.865928 4.196669 -0.414785 2.519346 -3.788718 -10.713162 4.526688 0.000000 0.000000 0.000000 0.799526 0.114636 -2.537328 -0.910647 0.422970 1.275025 -1.251001 0.002180 7.562705 1.327498 -0.381854 -8.456143 0.000000 0.000000 0.000000 -22.603950 -15.680550 7.323512 -60.876962 -31.673866 9.563630 -166.607484 -68.187084 168.529449 0.000000 0.000000 0.000000 15.401715 18.190220 7.676095 44.490097 37.288129 9.203262 -133.387639 68.838658 -109.818447 0.000000 0.000000 0.000000 
0.000157 0.936527 0.001084 0.247966 -0.973934 0.626722 1.507043 -0.009445 0.105233 -1.911475 0.224795 -0.677892 4.300560 10.183970 5.017016 0.000000 0.000000 0.000000 -5.030586 0.293788 -2.851916 4.425795 -0.453803 3.104810 -3.952835 -10.948843 4.129924 0.000000 0.000000 0.000000 0.433904 0.149483 -3.420803 -1.170336 0.533466 2.458218 -1.174103 -0.952108 7.171851 0.719461 -0.077739 -7.137840 0.000000 0.000000 0.000000 -21.931854 -16.007783 7.592650 -63.128235 -31.925752 10.296249 -170.243998 -68.324538 174.205106 0.000000 0.000000 0.000000 14.909808 17.405212 7.106549 44.153157 36.740160 8.931439 -129.378969 67.141913 -103.506802 0.000000 0.000000 0.000000 
0.000117 0.936363 0.001283 0.293695 -1.082946 0.266590 1.399139 0.028252 0.539362 -1.701746 0.200191 -0.514878 4.252855 10.095505 5.028462 0.000000 0.000000 0.000000 -5.279904 0.264966 -2.365226 4.166416 -0.419052 3.135407 -3.423016 -9.849036 4.388867 0.000000 0.000000 0.000000 0.492541 0.153474 -3.466087 -1.508401 0.707197 2.343101 -1.322261 -1.270570 7.479574 0.480904 0.007422 -6.211101 0.000000 0.000000 0.000000 -21.762312 -16.027276 7.706269 -62.744496 -32.410493 10.467596 -172.185971 -68.467427 177.344240 0.000000 0.000000 0.000000 14.957236 17.359828 7.006328 42.636810 35.797553 8.140388 -126.459844 67.013395 -100.136204 0.000000 0.000000 0.000000 
-0.000042 0.935923 0.001421 0.169927 -1.056506 0.357030 1.541164 0.022917 0.505340 -1.793225 0.211351 -0.599513 4.081360 9.623602 4.311356 0.000000 0.000000 0.000000 -5.245141 0.279222 -2.619056 4.346365 -0.442347 3.341694 -3.376848 -9.629319 3.946536 0.000000 0.000000 0.000000 0.452751 0.168287 -3.811413 -1.706594 0.806352 2.439977 -1.057717 -1.320001 7.517569 -0.163598 0.457986 -5.817529 0.000000 0.000000 0.000000 -21.451248 -15.965032 7.667125 -63.177318 -32.920844 10.894695 -173.284531 -68.457948 179.044623 0.000000 0.000000 0.000000 14.901604 17.505275 7.057733 41.472808 34.698403 7.442632 -125.066509 66.734348 -98.271721 0.000000 0.000000 0.000000 
-0.000275 0.935799 0.001392 0.217068 -1.187006 0.213536 1.747674 0.041099 0.766200 -2.070857 0.244686 -0.786107 3.876691 9.314245 4.652884 0.000000 0.000000 0.000000 -5.459234 0.277307 -2.573687 4.442810 -0.453234 3.629193 -3.219595 -9.254192 3.839659 0.000000 0.000000 0.000000 0.576511 0.177706 -3.939211 -1.755473 0.832081 2.568970 -1.492212 -1.407183 7.414940 0.288926 0.119724 -5.886256 0.000000 0.000000 0.000000 -21.608742 -15.912373 7.672173 -63.161257 -32.543020 10.660723 -174.446024 -67.743059 -179.220607 0.000000 0.000000 0.000000 15.423070 17.414617 7.026019 41.125884 34.192674 7.195842 -126.795698 67.334564 -101.043025 0.000000 0.000000 0.000000 
